<svg width="48" height="48" viewBox="0 0 48 48" fill="none" xmlns="http://www.w3.org/2000/svg">
<circle cx="24" cy="24" r="24" fill="#F3F4F7"/>
<path d="M29.7334 15.3259C30.4209 15.282 31.1036 15.4994 31.6446 15.9352L31.7989 16.07L31.8643 16.1354C32.9392 17.2107 32.9525 18.9407 31.8838 20.0095L29.0313 22.6774L32.294 30.8815C32.4458 31.2632 32.4839 31.6795 32.4034 32.0788C32.3228 32.4781 32.1275 32.8438 31.8409 33.1306L31.7461 33.2243C31.5842 33.3862 31.389 33.5115 31.1739 33.5915C30.9586 33.6715 30.7276 33.7052 30.4971 33.6892C30.2668 33.6731 30.0418 33.6079 29.837 33.4987C29.632 33.3894 29.4518 33.2377 29.3086 33.0544L24.5059 26.905L22.3291 28.9401L23.0606 31.5554C23.1516 31.8805 23.1552 32.2232 23.0713 32.5476C22.9875 32.8718 22.819 33.1671 22.583 33.403C22.3223 33.6638 21.9664 33.8082 21.5948 33.8054C21.2233 33.8024 20.8663 33.6521 20.6016 33.3874L19.1377 31.9245L18.9668 32.069C18.5557 32.3839 18.0414 32.5374 17.5205 32.4997C16.9997 32.462 16.5076 32.2355 16.1358 31.864C15.7641 31.4925 15.5382 31.0008 15.5 30.4802C15.462 29.9594 15.6142 29.4453 15.9288 29.0339L16.0752 28.861L14.6114 27.3981C14.3466 27.1334 14.1963 26.7756 14.1934 26.404C14.1906 26.0324 14.3359 25.6765 14.5967 25.4157C15.0775 24.9352 15.7823 24.7539 16.4434 24.9392L19.0577 25.6686L21.0928 23.4919L14.9444 18.6901C14.6023 18.4223 14.3779 18.0316 14.3213 17.6032C14.2648 17.1747 14.3804 16.7436 14.6426 16.405L14.7071 16.3269L14.8702 16.1599C15.157 15.8732 15.5226 15.6769 15.9219 15.5964C16.321 15.516 16.7368 15.5541 17.1182 15.7058L25.3204 18.9685L27.9366 16.1726C28.4035 15.6721 29.0459 15.3699 29.7334 15.3259ZM29.8907 16.7204C29.716 16.7251 29.5444 16.7644 29.3858 16.8356C29.2271 16.907 29.0842 17.0093 28.9659 17.1364L25.7061 20.6218L16.6182 17.0056C16.491 16.9548 16.352 16.9417 16.2188 16.9685C16.0857 16.9953 15.9638 17.0604 15.8682 17.156L15.7539 17.2722C15.7177 17.3195 15.7019 17.3795 15.71 17.4392C15.7181 17.4988 15.7492 17.5533 15.7969 17.5905L23.1621 23.3435L19.5157 27.2477L16.085 26.2878C15.9986 26.2637 15.9074 26.2625 15.8213 26.2849C15.7354 26.3072 15.6573 26.3522 15.5948 26.4147L18.0225 28.8425L17.0889 29.8435C16.9496 29.9827 16.8726 30.1733 16.8741 30.3718C16.8757 30.57 16.9555 30.7608 17.0967 30.902C17.2381 31.0434 17.4295 31.1242 17.628 31.1257C17.8263 31.1271 18.0161 31.0491 18.1553 30.9099L19.1543 29.9743L21.585 32.404L21.6514 32.322C21.6897 32.2625 21.7143 32.195 21.7246 32.1247C21.735 32.0545 21.7312 31.9825 21.712 31.9138L20.75 28.4831L24.6553 24.8356L30.4258 32.2233C30.5157 32.3129 30.6597 32.3147 30.7481 32.2263L30.8418 32.1315C30.9374 32.0359 31.0026 31.9141 31.0293 31.781C31.0561 31.648 31.0438 31.5096 30.9932 31.3825L27.378 22.2907L30.8946 19.0026C31.0175 18.88 31.1149 18.7341 31.1807 18.5729C31.2465 18.4118 31.2797 18.2382 31.2784 18.0632C31.277 17.8883 31.2411 17.7145 31.1729 17.5524C31.1047 17.3906 31.0055 17.2432 30.8809 17.1188L30.8487 17.0866C30.72 16.966 30.5687 16.8711 30.4043 16.8083C30.2401 16.7457 30.0654 16.7158 29.8907 16.7204Z" fill="#97A1AF"/>
</svg>
