<svg width="21" height="20" viewBox="0 0 21 20" fill="none" xmlns="http://www.w3.org/2000/svg">
<g clip-path="url(#clip0_13669_35565)">
<path d="M10.5003 1.66797C5.90033 1.66797 2.16699 5.4013 2.16699 10.0013C2.16699 14.6013 5.90033 18.3346 10.5003 18.3346C15.1003 18.3346 18.8337 14.6013 18.8337 10.0013C18.8337 5.4013 15.1003 1.66797 10.5003 1.66797ZM11.3337 15.8346H9.66699V14.168H11.3337V15.8346ZM13.0587 9.3763L12.3087 10.143C11.7087 10.7513 11.3337 11.2513 11.3337 12.5013H9.66699V12.0846C9.66699 11.168 10.042 10.3346 10.642 9.7263L11.6753 8.6763C11.9837 8.3763 12.167 7.95964 12.167 7.5013C12.167 6.58464 11.417 5.83464 10.5003 5.83464C9.58366 5.83464 8.83366 6.58464 8.83366 7.5013H7.16699C7.16699 5.65964 8.65866 4.16797 10.5003 4.16797C12.342 4.16797 13.8337 5.65964 13.8337 7.5013C13.8337 8.23464 13.5337 8.9013 13.0587 9.3763Z" fill="#CED2DA"/>
</g>
<defs>
<clipPath id="clip0_13669_35565">
<rect width="20" height="20" fill="white" transform="translate(0.5)"/>
</clipPath>
</defs>
</svg>
