<svg width="64" height="64" viewBox="0 0 64 64" fill="none" xmlns="http://www.w3.org/2000/svg">
<g clip-path="url(#clip0_40002527_17957)">
<g clip-path="url(#clip1_40002527_17957)">
<path d="M2.17586 0.257812H0.255859V2.17781H2.17586V0.257812Z" fill="#141C24"/>
<path d="M4.09578 0.257812H2.17578V2.17781H4.09578V0.257812Z" fill="#141C24"/>
<path d="M6.01619 0.257812H4.09619V2.17781H6.01619V0.257812Z" fill="#141C24"/>
<path d="M7.93611 0.257812H6.01611V2.17781H7.93611V0.257812Z" fill="#141C24"/>
<path d="M9.85604 0.257812H7.93604V2.17781H9.85604V0.257812Z" fill="#141C24"/>
<path d="M11.776 0.257812H9.85596V2.17781H11.776V0.257812Z" fill="#141C24"/>
<path d="M13.6964 0.257812H11.7764V2.17781H13.6964V0.257812Z" fill="#141C24"/>
<path d="M17.5357 0.257812H15.6157V2.17781H17.5357V0.257812Z" fill="#141C24"/>
<path d="M23.2955 0.257812H21.3755V2.17781H23.2955V0.257812Z" fill="#141C24"/>
<path d="M25.2159 0.257812H23.2959V2.17781H25.2159V0.257812Z" fill="#141C24"/>
<path d="M27.1358 0.257812H25.2158V2.17781H27.1358V0.257812Z" fill="#141C24"/>
<path d="M32.8961 0.257812H30.9761V2.17781H32.8961V0.257812Z" fill="#141C24"/>
<path d="M34.8165 0.257812H32.8965V2.17781H34.8165V0.257812Z" fill="#141C24"/>
<path d="M36.7359 0.257812H34.8159V2.17781H36.7359V0.257812Z" fill="#141C24"/>
<path d="M38.6558 0.257812H36.7358V2.17781H38.6558V0.257812Z" fill="#141C24"/>
<path d="M40.5762 0.257812H38.6562V2.17781H40.5762V0.257812Z" fill="#141C24"/>
<path d="M42.4962 0.257812H40.5762V2.17781H42.4962V0.257812Z" fill="#141C24"/>
<path d="M44.4156 0.257812H42.4956V2.17781H44.4156V0.257812Z" fill="#141C24"/>
<path d="M46.336 0.257812H44.416V2.17781H46.336V0.257812Z" fill="#141C24"/>
<path d="M48.2559 0.257812H46.3359V2.17781H48.2559V0.257812Z" fill="#141C24"/>
<path d="M52.0958 0.257812H50.1758V2.17781H52.0958V0.257812Z" fill="#141C24"/>
<path d="M54.0162 0.257812H52.0962V2.17781H54.0162V0.257812Z" fill="#141C24"/>
<path d="M55.9361 0.257812H54.0161V2.17781H55.9361V0.257812Z" fill="#141C24"/>
<path d="M57.856 0.257812H55.936V2.17781H57.856V0.257812Z" fill="#141C24"/>
<path d="M59.776 0.257812H57.856V2.17781H59.776V0.257812Z" fill="#141C24"/>
<path d="M61.6964 0.257812H59.7764V2.17781H61.6964V0.257812Z" fill="#141C24"/>
<path d="M63.6158 0.257812H61.6958V2.17781H63.6158V0.257812Z" fill="#141C24"/>
<path d="M2.17586 2.17578H0.255859V4.09578H2.17586V2.17578Z" fill="#141C24"/>
<path d="M13.6964 2.17578H11.7764V4.09578H13.6964V2.17578Z" fill="#141C24"/>
<path d="M17.5357 2.17578H15.6157V4.09578H17.5357V2.17578Z" fill="#141C24"/>
<path d="M19.4561 2.17578H17.5361V4.09578H19.4561V2.17578Z" fill="#141C24"/>
<path d="M21.3761 2.17578H19.4561V4.09578H21.3761V2.17578Z" fill="#141C24"/>
<path d="M23.2955 2.17578H21.3755V4.09578H23.2955V2.17578Z" fill="#141C24"/>
<path d="M27.1358 2.17578H25.2158V4.09578H27.1358V2.17578Z" fill="#141C24"/>
<path d="M32.8961 2.17578H30.9761V4.09578H32.8961V2.17578Z" fill="#141C24"/>
<path d="M34.8165 2.17578H32.8965V4.09578H34.8165V2.17578Z" fill="#141C24"/>
<path d="M36.7359 2.17578H34.8159V4.09578H36.7359V2.17578Z" fill="#141C24"/>
<path d="M38.6558 2.17578H36.7358V4.09578H38.6558V2.17578Z" fill="#141C24"/>
<path d="M40.5762 2.17578H38.6562V4.09578H40.5762V2.17578Z" fill="#141C24"/>
<path d="M44.4156 2.17578H42.4956V4.09578H44.4156V2.17578Z" fill="#141C24"/>
<path d="M52.0958 2.17578H50.1758V4.09578H52.0958V2.17578Z" fill="#141C24"/>
<path d="M63.6158 2.17578H61.6958V4.09578H63.6158V2.17578Z" fill="#141C24"/>
<path d="M2.17586 4.09766H0.255859V6.01766H2.17586V4.09766Z" fill="#141C24"/>
<path d="M6.01619 4.09766H4.09619V6.01766H6.01619V4.09766Z" fill="#141C24"/>
<path d="M7.93611 4.09766H6.01611V6.01766H7.93611V4.09766Z" fill="#141C24"/>
<path d="M9.85604 4.09766H7.93604V6.01766H9.85604V4.09766Z" fill="#141C24"/>
<path d="M13.6964 4.09766H11.7764V6.01766H13.6964V4.09766Z" fill="#141C24"/>
<path d="M17.5357 4.09766H15.6157V6.01766H17.5357V4.09766Z" fill="#141C24"/>
<path d="M23.2955 4.09766H21.3755V6.01766H23.2955V4.09766Z" fill="#141C24"/>
<path d="M25.2159 4.09766H23.2959V6.01766H25.2159V4.09766Z" fill="#141C24"/>
<path d="M29.0557 4.09766H27.1357V6.01766H29.0557V4.09766Z" fill="#141C24"/>
<path d="M30.9762 4.09766H29.0562V6.01766H30.9762V4.09766Z" fill="#141C24"/>
<path d="M40.5762 4.09766H38.6562V6.01766H40.5762V4.09766Z" fill="#141C24"/>
<path d="M42.4962 4.09766H40.5762V6.01766H42.4962V4.09766Z" fill="#141C24"/>
<path d="M46.336 4.09766H44.416V6.01766H46.336V4.09766Z" fill="#141C24"/>
<path d="M52.0958 4.09766H50.1758V6.01766H52.0958V4.09766Z" fill="#141C24"/>
<path d="M55.9361 4.09766H54.0161V6.01766H55.9361V4.09766Z" fill="#141C24"/>
<path d="M57.856 4.09766H55.936V6.01766H57.856V4.09766Z" fill="#141C24"/>
<path d="M59.776 4.09766H57.856V6.01766H59.776V4.09766Z" fill="#141C24"/>
<path d="M63.6158 4.09766H61.6958V6.01766H63.6158V4.09766Z" fill="#141C24"/>
<path d="M2.17586 6.01562H0.255859V7.93563H2.17586V6.01562Z" fill="#141C24"/>
<path d="M6.01619 6.01562H4.09619V7.93563H6.01619V6.01562Z" fill="#141C24"/>
<path d="M7.93611 6.01562H6.01611V7.93563H7.93611V6.01562Z" fill="#141C24"/>
<path d="M9.85604 6.01562H7.93604V7.93563H9.85604V6.01562Z" fill="#141C24"/>
<path d="M13.6964 6.01562H11.7764V7.93563H13.6964V6.01562Z" fill="#141C24"/>
<path d="M25.2159 6.01562H23.2959V7.93563H25.2159V6.01562Z" fill="#141C24"/>
<path d="M27.1358 6.01562H25.2158V7.93563H27.1358V6.01562Z" fill="#141C24"/>
<path d="M30.9762 6.01562H29.0562V7.93563H30.9762V6.01562Z" fill="#141C24"/>
<path d="M36.7359 6.01562H34.8159V7.93563H36.7359V6.01562Z" fill="#141C24"/>
<path d="M38.6558 6.01562H36.7358V7.93563H38.6558V6.01562Z" fill="#141C24"/>
<path d="M40.5762 6.01562H38.6562V7.93563H40.5762V6.01562Z" fill="#141C24"/>
<path d="M42.4962 6.01562H40.5762V7.93563H42.4962V6.01562Z" fill="#141C24"/>
<path d="M48.2559 6.01562H46.3359V7.93563H48.2559V6.01562Z" fill="#141C24"/>
<path d="M52.0958 6.01562H50.1758V7.93563H52.0958V6.01562Z" fill="#141C24"/>
<path d="M55.9361 6.01562H54.0161V7.93563H55.9361V6.01562Z" fill="#141C24"/>
<path d="M57.856 6.01562H55.936V7.93563H57.856V6.01562Z" fill="#141C24"/>
<path d="M59.776 6.01562H57.856V7.93563H59.776V6.01562Z" fill="#141C24"/>
<path d="M63.6158 6.01562H61.6958V7.93563H63.6158V6.01562Z" fill="#141C24"/>
<path d="M2.17586 7.9375H0.255859V9.8575H2.17586V7.9375Z" fill="#141C24"/>
<path d="M6.01619 7.9375H4.09619V9.8575H6.01619V7.9375Z" fill="#141C24"/>
<path d="M7.93611 7.9375H6.01611V9.8575H7.93611V7.9375Z" fill="#141C24"/>
<path d="M9.85604 7.9375H7.93604V9.8575H9.85604V7.9375Z" fill="#141C24"/>
<path d="M13.6964 7.9375H11.7764V9.8575H13.6964V7.9375Z" fill="#141C24"/>
<path d="M19.4561 7.9375H17.5361V9.8575H19.4561V7.9375Z" fill="#141C24"/>
<path d="M27.1358 7.9375H25.2158V9.8575H27.1358V7.9375Z" fill="#141C24"/>
<path d="M29.0557 7.9375H27.1357V9.8575H29.0557V7.9375Z" fill="#141C24"/>
<path d="M30.9762 7.9375H29.0562V9.8575H30.9762V7.9375Z" fill="#141C24"/>
<path d="M34.8165 7.9375H32.8965V9.8575H34.8165V7.9375Z" fill="#141C24"/>
<path d="M36.7359 7.9375H34.8159V9.8575H36.7359V7.9375Z" fill="#141C24"/>
<path d="M40.5762 7.9375H38.6562V9.8575H40.5762V7.9375Z" fill="#141C24"/>
<path d="M42.4962 7.9375H40.5762V9.8575H42.4962V7.9375Z" fill="#141C24"/>
<path d="M44.4156 7.9375H42.4956V9.8575H44.4156V7.9375Z" fill="#141C24"/>
<path d="M52.0958 7.9375H50.1758V9.8575H52.0958V7.9375Z" fill="#141C24"/>
<path d="M55.9361 7.9375H54.0161V9.8575H55.9361V7.9375Z" fill="#141C24"/>
<path d="M57.856 7.9375H55.936V9.8575H57.856V7.9375Z" fill="#141C24"/>
<path d="M59.776 7.9375H57.856V9.8575H59.776V7.9375Z" fill="#141C24"/>
<path d="M63.6158 7.9375H61.6958V9.8575H63.6158V7.9375Z" fill="#141C24"/>
<path d="M2.17586 9.85547H0.255859V11.7755H2.17586V9.85547Z" fill="#141C24"/>
<path d="M13.6964 9.85547H11.7764V11.7755H13.6964V9.85547Z" fill="#141C24"/>
<path d="M17.5357 9.85547H15.6157V11.7755H17.5357V9.85547Z" fill="#141C24"/>
<path d="M21.3761 9.85547H19.4561V11.7755H21.3761V9.85547Z" fill="#141C24"/>
<path d="M27.1358 9.85547H25.2158V11.7755H27.1358V9.85547Z" fill="#141C24"/>
<path d="M30.9762 9.85547H29.0562V11.7755H30.9762V9.85547Z" fill="#141C24"/>
<path d="M34.8165 9.85547H32.8965V11.7755H34.8165V9.85547Z" fill="#141C24"/>
<path d="M36.7359 9.85547H34.8159V11.7755H36.7359V9.85547Z" fill="#141C24"/>
<path d="M44.4156 9.85547H42.4956V11.7755H44.4156V9.85547Z" fill="#141C24"/>
<path d="M46.336 9.85547H44.416V11.7755H46.336V9.85547Z" fill="#141C24"/>
<path d="M48.2559 9.85547H46.3359V11.7755H48.2559V9.85547Z" fill="#141C24"/>
<path d="M52.0958 9.85547H50.1758V11.7755H52.0958V9.85547Z" fill="#141C24"/>
<path d="M63.6158 9.85547H61.6958V11.7755H63.6158V9.85547Z" fill="#141C24"/>
<path d="M2.17586 11.7773H0.255859V13.6973H2.17586V11.7773Z" fill="#141C24"/>
<path d="M4.09578 11.7773H2.17578V13.6973H4.09578V11.7773Z" fill="#141C24"/>
<path d="M6.01619 11.7773H4.09619V13.6973H6.01619V11.7773Z" fill="#141C24"/>
<path d="M7.93611 11.7773H6.01611V13.6973H7.93611V11.7773Z" fill="#141C24"/>
<path d="M9.85604 11.7773H7.93604V13.6973H9.85604V11.7773Z" fill="#141C24"/>
<path d="M11.776 11.7773H9.85596V13.6973H11.776V11.7773Z" fill="#141C24"/>
<path d="M13.6964 11.7773H11.7764V13.6973H13.6964V11.7773Z" fill="#141C24"/>
<path d="M17.5357 11.7773H15.6157V13.6973H17.5357V11.7773Z" fill="#141C24"/>
<path d="M21.3761 11.7773H19.4561V13.6973H21.3761V11.7773Z" fill="#141C24"/>
<path d="M25.2159 11.7773H23.2959V13.6973H25.2159V11.7773Z" fill="#141C24"/>
<path d="M29.0557 11.7773H27.1357V13.6973H29.0557V11.7773Z" fill="#141C24"/>
<path d="M32.8961 11.7773H30.9761V13.6973H32.8961V11.7773Z" fill="#141C24"/>
<path d="M36.7359 11.7773H34.8159V13.6973H36.7359V11.7773Z" fill="#141C24"/>
<path d="M40.5762 11.7773H38.6562V13.6973H40.5762V11.7773Z" fill="#141C24"/>
<path d="M44.4156 11.7773H42.4956V13.6973H44.4156V11.7773Z" fill="#141C24"/>
<path d="M48.2559 11.7773H46.3359V13.6973H48.2559V11.7773Z" fill="#141C24"/>
<path d="M52.0958 11.7773H50.1758V13.6973H52.0958V11.7773Z" fill="#141C24"/>
<path d="M54.0162 11.7773H52.0962V13.6973H54.0162V11.7773Z" fill="#141C24"/>
<path d="M55.9361 11.7773H54.0161V13.6973H55.9361V11.7773Z" fill="#141C24"/>
<path d="M57.856 11.7773H55.936V13.6973H57.856V11.7773Z" fill="#141C24"/>
<path d="M59.776 11.7773H57.856V13.6973H59.776V11.7773Z" fill="#141C24"/>
<path d="M61.6964 11.7773H59.7764V13.6973H61.6964V11.7773Z" fill="#141C24"/>
<path d="M63.6158 11.7773H61.6958V13.6973H63.6158V11.7773Z" fill="#141C24"/>
<path d="M17.5357 13.6953H15.6157V15.6153H17.5357V13.6953Z" fill="#141C24"/>
<path d="M19.4561 13.6953H17.5361V15.6153H19.4561V13.6953Z" fill="#141C24"/>
<path d="M21.3761 13.6953H19.4561V15.6153H21.3761V13.6953Z" fill="#141C24"/>
<path d="M23.2955 13.6953H21.3755V15.6153H23.2955V13.6953Z" fill="#141C24"/>
<path d="M32.8961 13.6953H30.9761V15.6153H32.8961V13.6953Z" fill="#141C24"/>
<path d="M36.7359 13.6953H34.8159V15.6153H36.7359V13.6953Z" fill="#141C24"/>
<path d="M46.336 13.6953H44.416V15.6153H46.336V13.6953Z" fill="#141C24"/>
<path d="M6.01619 15.6172H4.09619V17.5372H6.01619V15.6172Z" fill="#141C24"/>
<path d="M7.93611 15.6172H6.01611V17.5372H7.93611V15.6172Z" fill="#141C24"/>
<path d="M9.85604 15.6172H7.93604V17.5372H9.85604V15.6172Z" fill="#141C24"/>
<path d="M13.6964 15.6172H11.7764V17.5372H13.6964V15.6172Z" fill="#141C24"/>
<path d="M17.5357 15.6172H15.6157V17.5372H17.5357V15.6172Z" fill="#141C24"/>
<path d="M19.4561 15.6172H17.5361V17.5372H19.4561V15.6172Z" fill="#141C24"/>
<path d="M21.3761 15.6172H19.4561V17.5372H21.3761V15.6172Z" fill="#141C24"/>
<path d="M23.2955 15.6172H21.3755V17.5372H23.2955V15.6172Z" fill="#141C24"/>
<path d="M29.0557 15.6172H27.1357V17.5372H29.0557V15.6172Z" fill="#141C24"/>
<path d="M36.7359 15.6172H34.8159V17.5372H36.7359V15.6172Z" fill="#141C24"/>
<path d="M38.6558 15.6172H36.7358V17.5372H38.6558V15.6172Z" fill="#141C24"/>
<path d="M42.4962 15.6172H40.5762V17.5372H42.4962V15.6172Z" fill="#141C24"/>
<path d="M44.4156 15.6172H42.4956V17.5372H44.4156V15.6172Z" fill="#141C24"/>
<path d="M46.336 15.6172H44.416V17.5372H46.336V15.6172Z" fill="#141C24"/>
<path d="M50.1759 15.6172H48.2559V17.5372H50.1759V15.6172Z" fill="#141C24"/>
<path d="M52.0958 15.6172H50.1758V17.5372H52.0958V15.6172Z" fill="#141C24"/>
<path d="M54.0162 15.6172H52.0962V17.5372H54.0162V15.6172Z" fill="#141C24"/>
<path d="M59.776 15.6172H57.856V17.5372H59.776V15.6172Z" fill="#141C24"/>
<path d="M61.6964 15.6172H59.7764V17.5372H61.6964V15.6172Z" fill="#141C24"/>
<path d="M63.6158 15.6172H61.6958V17.5372H63.6158V15.6172Z" fill="#141C24"/>
<path d="M15.6158 17.5352H13.6958V19.4552H15.6158V17.5352Z" fill="#141C24"/>
<path d="M19.4561 17.5352H17.5361V19.4552H19.4561V17.5352Z" fill="#141C24"/>
<path d="M23.2955 17.5352H21.3755V19.4552H23.2955V17.5352Z" fill="#141C24"/>
<path d="M25.2159 17.5352H23.2959V19.4552H25.2159V17.5352Z" fill="#141C24"/>
<path d="M30.9762 17.5352H29.0562V19.4552H30.9762V17.5352Z" fill="#141C24"/>
<path d="M36.7359 17.5352H34.8159V19.4552H36.7359V17.5352Z" fill="#141C24"/>
<path d="M40.5762 17.5352H38.6562V19.4552H40.5762V17.5352Z" fill="#141C24"/>
<path d="M42.4962 17.5352H40.5762V19.4552H42.4962V17.5352Z" fill="#141C24"/>
<path d="M44.4156 17.5352H42.4956V19.4552H44.4156V17.5352Z" fill="#141C24"/>
<path d="M46.336 17.5352H44.416V19.4552H46.336V17.5352Z" fill="#141C24"/>
<path d="M57.856 17.5352H55.936V19.4552H57.856V17.5352Z" fill="#141C24"/>
<path d="M59.776 17.5352H57.856V19.4552H59.776V17.5352Z" fill="#141C24"/>
<path d="M61.6964 17.5352H59.7764V19.4552H61.6964V17.5352Z" fill="#141C24"/>
<path d="M63.6158 17.5352H61.6958V19.4552H63.6158V17.5352Z" fill="#141C24"/>
<path d="M6.01619 19.457H4.09619V21.377H6.01619V19.457Z" fill="#141C24"/>
<path d="M11.776 19.457H9.85596V21.377H11.776V19.457Z" fill="#141C24"/>
<path d="M13.6964 19.457H11.7764V21.377H13.6964V19.457Z" fill="#141C24"/>
<path d="M19.4561 19.457H17.5361V21.377H19.4561V19.457Z" fill="#141C24"/>
<path d="M27.1358 19.457H25.2158V21.377H27.1358V19.457Z" fill="#141C24"/>
<path d="M30.9762 19.457H29.0562V21.377H30.9762V19.457Z" fill="#141C24"/>
<path d="M32.8961 19.457H30.9761V21.377H32.8961V19.457Z" fill="#141C24"/>
<path d="M34.8165 19.457H32.8965V21.377H34.8165V19.457Z" fill="#141C24"/>
<path d="M38.6558 19.457H36.7358V21.377H38.6558V19.457Z" fill="#141C24"/>
<path d="M42.4962 19.457H40.5762V21.377H42.4962V19.457Z" fill="#141C24"/>
<path d="M46.336 19.457H44.416V21.377H46.336V19.457Z" fill="#141C24"/>
<path d="M48.2559 19.457H46.3359V21.377H48.2559V19.457Z" fill="#141C24"/>
<path d="M50.1759 19.457H48.2559V21.377H50.1759V19.457Z" fill="#141C24"/>
<path d="M55.9361 19.457H54.0161V21.377H55.9361V19.457Z" fill="#141C24"/>
<path d="M57.856 19.457H55.936V21.377H57.856V19.457Z" fill="#141C24"/>
<path d="M61.6964 19.457H59.7764V21.377H61.6964V19.457Z" fill="#141C24"/>
<path d="M63.6158 19.457H61.6958V21.377H63.6158V19.457Z" fill="#141C24"/>
<path d="M2.17586 21.375H0.255859V23.295H2.17586V21.375Z" fill="#141C24"/>
<path d="M4.09578 21.375H2.17578V23.295H4.09578V21.375Z" fill="#141C24"/>
<path d="M6.01619 21.375H4.09619V23.295H6.01619V21.375Z" fill="#141C24"/>
<path d="M9.85604 21.375H7.93604V23.295H9.85604V21.375Z" fill="#141C24"/>
<path d="M11.776 21.375H9.85596V23.295H11.776V21.375Z" fill="#141C24"/>
<path d="M21.3761 21.375H19.4561V23.295H21.3761V21.375Z" fill="#141C24"/>
<path d="M25.2159 21.375H23.2959V23.295H25.2159V21.375Z" fill="#141C24"/>
<path d="M32.8961 21.375H30.9761V23.295H32.8961V21.375Z" fill="#141C24"/>
<path d="M34.8165 21.375H32.8965V23.295H34.8165V21.375Z" fill="#141C24"/>
<path d="M40.5762 21.375H38.6562V23.295H40.5762V21.375Z" fill="#141C24"/>
<path d="M42.4962 21.375H40.5762V23.295H42.4962V21.375Z" fill="#141C24"/>
<path d="M44.4156 21.375H42.4956V23.295H44.4156V21.375Z" fill="#141C24"/>
<path d="M46.336 21.375H44.416V23.295H46.336V21.375Z" fill="#141C24"/>
<path d="M48.2559 21.375H46.3359V23.295H48.2559V21.375Z" fill="#141C24"/>
<path d="M50.1759 21.375H48.2559V23.295H50.1759V21.375Z" fill="#141C24"/>
<path d="M52.0958 21.375H50.1758V23.295H52.0958V21.375Z" fill="#141C24"/>
<path d="M63.6158 21.375H61.6958V23.295H63.6158V21.375Z" fill="#141C24"/>
<path d="M2.17586 23.2969H0.255859V25.2169H2.17586V23.2969Z" fill="#141C24"/>
<path d="M7.93611 23.2969H6.01611V25.2169H7.93611V23.2969Z" fill="#141C24"/>
<path d="M13.6964 23.2969H11.7764V25.2169H13.6964V23.2969Z" fill="#141C24"/>
<path d="M15.6158 23.2969H13.6958V25.2169H15.6158V23.2969Z" fill="#141C24"/>
<path d="M17.5357 23.2969H15.6157V25.2169H17.5357V23.2969Z" fill="#141C24"/>
<path d="M21.3761 23.2969H19.4561V25.2169H21.3761V23.2969Z" fill="#141C24"/>
<path d="M25.2159 23.2969H23.2959V25.2169H25.2159V23.2969Z" fill="#141C24"/>
<path d="M29.0557 23.2969H27.1357V25.2169H29.0557V23.2969Z" fill="#141C24"/>
<path d="M30.9762 23.2969H29.0562V25.2169H30.9762V23.2969Z" fill="#141C24"/>
<path d="M34.8165 23.2969H32.8965V25.2169H34.8165V23.2969Z" fill="#141C24"/>
<path d="M42.4962 23.2969H40.5762V25.2169H42.4962V23.2969Z" fill="#141C24"/>
<path d="M48.2559 23.2969H46.3359V25.2169H48.2559V23.2969Z" fill="#141C24"/>
<path d="M57.856 23.2969H55.936V25.2169H57.856V23.2969Z" fill="#141C24"/>
<path d="M59.776 23.2969H57.856V25.2169H59.776V23.2969Z" fill="#141C24"/>
<path d="M4.09578 25.2148H2.17578V27.1348H4.09578V25.2148Z" fill="#141C24"/>
<path d="M6.01619 25.2148H4.09619V27.1348H6.01619V25.2148Z" fill="#141C24"/>
<path d="M7.93611 25.2148H6.01611V27.1348H7.93611V25.2148Z" fill="#141C24"/>
<path d="M19.4561 25.2148H17.5361V27.1348H19.4561V25.2148Z" fill="#141C24"/>
<path d="M27.1358 25.2148H25.2158V27.1348H27.1358V25.2148Z" fill="#141C24"/>
<path d="M36.7359 25.2148H34.8159V27.1348H36.7359V25.2148Z" fill="#141C24"/>
<path d="M38.6558 25.2148H36.7358V27.1348H38.6558V25.2148Z" fill="#141C24"/>
<path d="M42.4962 25.2148H40.5762V27.1348H42.4962V25.2148Z" fill="#141C24"/>
<path d="M44.4156 25.2148H42.4956V27.1348H44.4156V25.2148Z" fill="#141C24"/>
<path d="M46.336 25.2148H44.416V27.1348H46.336V25.2148Z" fill="#141C24"/>
<path d="M52.0958 25.2148H50.1758V27.1348H52.0958V25.2148Z" fill="#141C24"/>
<path d="M57.856 25.2148H55.936V27.1348H57.856V25.2148Z" fill="#141C24"/>
<path d="M59.776 25.2148H57.856V27.1348H59.776V25.2148Z" fill="#141C24"/>
<path d="M2.17586 27.1367H0.255859V29.0567H2.17586V27.1367Z" fill="#141C24"/>
<path d="M4.09578 27.1367H2.17578V29.0567H4.09578V27.1367Z" fill="#141C24"/>
<path d="M6.01619 27.1367H4.09619V29.0567H6.01619V27.1367Z" fill="#141C24"/>
<path d="M7.93611 27.1367H6.01611V29.0567H7.93611V27.1367Z" fill="#141C24"/>
<path d="M9.85604 27.1367H7.93604V29.0567H9.85604V27.1367Z" fill="#141C24"/>
<path d="M13.6964 27.1367H11.7764V29.0567H13.6964V27.1367Z" fill="#141C24"/>
<path d="M15.6158 27.1367H13.6958V29.0567H15.6158V27.1367Z" fill="#141C24"/>
<path d="M19.4561 27.1367H17.5361V29.0567H19.4561V27.1367Z" fill="#141C24"/>
<path d="M23.2955 27.1367H21.3755V29.0567H23.2955V27.1367Z" fill="#141C24"/>
<path d="M25.2159 27.1367H23.2959V29.0567H25.2159V27.1367Z" fill="#141C24"/>
<path d="M27.1358 27.1367H25.2158V29.0567H27.1358V27.1367Z" fill="#141C24"/>
<path d="M30.9762 27.1367H29.0562V29.0567H30.9762V27.1367Z" fill="#141C24"/>
<path d="M36.7359 27.1367H34.8159V29.0567H36.7359V27.1367Z" fill="#141C24"/>
<path d="M38.6558 27.1367H36.7358V29.0567H38.6558V27.1367Z" fill="#141C24"/>
<path d="M46.336 27.1367H44.416V29.0567H46.336V27.1367Z" fill="#141C24"/>
<path d="M48.2559 27.1367H46.3359V29.0567H48.2559V27.1367Z" fill="#141C24"/>
<path d="M50.1759 27.1367H48.2559V29.0567H50.1759V27.1367Z" fill="#141C24"/>
<path d="M55.9361 27.1367H54.0161V29.0567H55.9361V27.1367Z" fill="#141C24"/>
<path d="M57.856 27.1367H55.936V29.0567H57.856V27.1367Z" fill="#141C24"/>
<path d="M61.6964 27.1367H59.7764V29.0567H61.6964V27.1367Z" fill="#141C24"/>
<path d="M2.17586 29.0547H0.255859V30.9747H2.17586V29.0547Z" fill="#141C24"/>
<path d="M6.01619 29.0547H4.09619V30.9747H6.01619V29.0547Z" fill="#141C24"/>
<path d="M7.93611 29.0547H6.01611V30.9747H7.93611V29.0547Z" fill="#141C24"/>
<path d="M9.85604 29.0547H7.93604V30.9747H9.85604V29.0547Z" fill="#141C24"/>
<path d="M11.776 29.0547H9.85596V30.9747H11.776V29.0547Z" fill="#141C24"/>
<path d="M29.0557 29.0547H27.1357V30.9747H29.0557V29.0547Z" fill="#141C24"/>
<path d="M36.7359 29.0547H34.8159V30.9747H36.7359V29.0547Z" fill="#141C24"/>
<path d="M40.5762 29.0547H38.6562V30.9747H40.5762V29.0547Z" fill="#141C24"/>
<path d="M44.4156 29.0547H42.4956V30.9747H44.4156V29.0547Z" fill="#141C24"/>
<path d="M46.336 29.0547H44.416V30.9747H46.336V29.0547Z" fill="#141C24"/>
<path d="M52.0958 29.0547H50.1758V30.9747H52.0958V29.0547Z" fill="#141C24"/>
<path d="M54.0162 29.0547H52.0962V30.9747H54.0162V29.0547Z" fill="#141C24"/>
<path d="M59.776 29.0547H57.856V30.9747H59.776V29.0547Z" fill="#141C24"/>
<path d="M63.6158 29.0547H61.6958V30.9747H63.6158V29.0547Z" fill="#141C24"/>
<path d="M4.09578 30.9766H2.17578V32.8966H4.09578V30.9766Z" fill="#141C24"/>
<path d="M9.85604 30.9766H7.93604V32.8966H9.85604V30.9766Z" fill="#141C24"/>
<path d="M13.6964 30.9766H11.7764V32.8966H13.6964V30.9766Z" fill="#141C24"/>
<path d="M15.6158 30.9766H13.6958V32.8966H15.6158V30.9766Z" fill="#141C24"/>
<path d="M21.3761 30.9766H19.4561V32.8966H21.3761V30.9766Z" fill="#141C24"/>
<path d="M23.2955 30.9766H21.3755V32.8966H23.2955V30.9766Z" fill="#141C24"/>
<path d="M29.0557 30.9766H27.1357V32.8966H29.0557V30.9766Z" fill="#141C24"/>
<path d="M30.9762 30.9766H29.0562V32.8966H30.9762V30.9766Z" fill="#141C24"/>
<path d="M40.5762 30.9766H38.6562V32.8966H40.5762V30.9766Z" fill="#141C24"/>
<path d="M48.2559 30.9766H46.3359V32.8966H48.2559V30.9766Z" fill="#141C24"/>
<path d="M50.1759 30.9766H48.2559V32.8966H50.1759V30.9766Z" fill="#141C24"/>
<path d="M52.0958 30.9766H50.1758V32.8966H52.0958V30.9766Z" fill="#141C24"/>
<path d="M55.9361 30.9766H54.0161V32.8966H55.9361V30.9766Z" fill="#141C24"/>
<path d="M59.776 30.9766H57.856V32.8966H59.776V30.9766Z" fill="#141C24"/>
<path d="M63.6158 30.9766H61.6958V32.8966H63.6158V30.9766Z" fill="#141C24"/>
<path d="M2.17586 32.8945H0.255859V34.8145H2.17586V32.8945Z" fill="#141C24"/>
<path d="M4.09578 32.8945H2.17578V34.8145H4.09578V32.8945Z" fill="#141C24"/>
<path d="M9.85604 32.8945H7.93604V34.8145H9.85604V32.8945Z" fill="#141C24"/>
<path d="M11.776 32.8945H9.85596V34.8145H11.776V32.8945Z" fill="#141C24"/>
<path d="M15.6158 32.8945H13.6958V34.8145H15.6158V32.8945Z" fill="#141C24"/>
<path d="M17.5357 32.8945H15.6157V34.8145H17.5357V32.8945Z" fill="#141C24"/>
<path d="M19.4561 32.8945H17.5361V34.8145H19.4561V32.8945Z" fill="#141C24"/>
<path d="M29.0557 32.8945H27.1357V34.8145H29.0557V32.8945Z" fill="#141C24"/>
<path d="M30.9762 32.8945H29.0562V34.8145H30.9762V32.8945Z" fill="#141C24"/>
<path d="M36.7359 32.8945H34.8159V34.8145H36.7359V32.8945Z" fill="#141C24"/>
<path d="M38.6558 32.8945H36.7358V34.8145H38.6558V32.8945Z" fill="#141C24"/>
<path d="M40.5762 32.8945H38.6562V34.8145H40.5762V32.8945Z" fill="#141C24"/>
<path d="M42.4962 32.8945H40.5762V34.8145H42.4962V32.8945Z" fill="#141C24"/>
<path d="M48.2559 32.8945H46.3359V34.8145H48.2559V32.8945Z" fill="#141C24"/>
<path d="M50.1759 32.8945H48.2559V34.8145H50.1759V32.8945Z" fill="#141C24"/>
<path d="M52.0958 32.8945H50.1758V34.8145H52.0958V32.8945Z" fill="#141C24"/>
<path d="M54.0162 32.8945H52.0962V34.8145H54.0162V32.8945Z" fill="#141C24"/>
<path d="M59.776 32.8945H57.856V34.8145H59.776V32.8945Z" fill="#141C24"/>
<path d="M2.17586 34.8164H0.255859V36.7364H2.17586V34.8164Z" fill="#141C24"/>
<path d="M6.01619 34.8164H4.09619V36.7364H6.01619V34.8164Z" fill="#141C24"/>
<path d="M7.93611 34.8164H6.01611V36.7364H7.93611V34.8164Z" fill="#141C24"/>
<path d="M9.85604 34.8164H7.93604V36.7364H9.85604V34.8164Z" fill="#141C24"/>
<path d="M13.6964 34.8164H11.7764V36.7364H13.6964V34.8164Z" fill="#141C24"/>
<path d="M17.5357 34.8164H15.6157V36.7364H17.5357V34.8164Z" fill="#141C24"/>
<path d="M25.2159 34.8164H23.2959V36.7364H25.2159V34.8164Z" fill="#141C24"/>
<path d="M29.0557 34.8164H27.1357V36.7364H29.0557V34.8164Z" fill="#141C24"/>
<path d="M30.9762 34.8164H29.0562V36.7364H30.9762V34.8164Z" fill="#141C24"/>
<path d="M32.8961 34.8164H30.9761V36.7364H32.8961V34.8164Z" fill="#141C24"/>
<path d="M38.6558 34.8164H36.7358V36.7364H38.6558V34.8164Z" fill="#141C24"/>
<path d="M40.5762 34.8164H38.6562V36.7364H40.5762V34.8164Z" fill="#141C24"/>
<path d="M44.4156 34.8164H42.4956V36.7364H44.4156V34.8164Z" fill="#141C24"/>
<path d="M54.0162 34.8164H52.0962V36.7364H54.0162V34.8164Z" fill="#141C24"/>
<path d="M55.9361 34.8164H54.0161V36.7364H55.9361V34.8164Z" fill="#141C24"/>
<path d="M57.856 34.8164H55.936V36.7364H57.856V34.8164Z" fill="#141C24"/>
<path d="M59.776 34.8164H57.856V36.7364H59.776V34.8164Z" fill="#141C24"/>
<path d="M61.6964 34.8164H59.7764V36.7364H61.6964V34.8164Z" fill="#141C24"/>
<path d="M2.17586 36.7344H0.255859V38.6544H2.17586V36.7344Z" fill="#141C24"/>
<path d="M6.01619 36.7344H4.09619V38.6544H6.01619V36.7344Z" fill="#141C24"/>
<path d="M21.3761 36.7344H19.4561V38.6544H21.3761V36.7344Z" fill="#141C24"/>
<path d="M23.2955 36.7344H21.3755V38.6544H23.2955V36.7344Z" fill="#141C24"/>
<path d="M29.0557 36.7344H27.1357V38.6544H29.0557V36.7344Z" fill="#141C24"/>
<path d="M36.7359 36.7344H34.8159V38.6544H36.7359V36.7344Z" fill="#141C24"/>
<path d="M38.6558 36.7344H36.7358V38.6544H38.6558V36.7344Z" fill="#141C24"/>
<path d="M42.4962 36.7344H40.5762V38.6544H42.4962V36.7344Z" fill="#141C24"/>
<path d="M44.4156 36.7344H42.4956V38.6544H44.4156V36.7344Z" fill="#141C24"/>
<path d="M46.336 36.7344H44.416V38.6544H46.336V36.7344Z" fill="#141C24"/>
<path d="M50.1759 36.7344H48.2559V38.6544H50.1759V36.7344Z" fill="#141C24"/>
<path d="M52.0958 36.7344H50.1758V38.6544H52.0958V36.7344Z" fill="#141C24"/>
<path d="M57.856 36.7344H55.936V38.6544H57.856V36.7344Z" fill="#141C24"/>
<path d="M63.6158 36.7344H61.6958V38.6544H63.6158V36.7344Z" fill="#141C24"/>
<path d="M4.09578 38.6562H2.17578V40.5762H4.09578V38.6562Z" fill="#141C24"/>
<path d="M6.01619 38.6562H4.09619V40.5762H6.01619V38.6562Z" fill="#141C24"/>
<path d="M9.85604 38.6562H7.93604V40.5762H9.85604V38.6562Z" fill="#141C24"/>
<path d="M11.776 38.6562H9.85596V40.5762H11.776V38.6562Z" fill="#141C24"/>
<path d="M13.6964 38.6562H11.7764V40.5763H13.6964V38.6562Z" fill="#141C24"/>
<path d="M17.5357 38.6562H15.6157V40.5763H17.5357V38.6562Z" fill="#141C24"/>
<path d="M21.3761 38.6562H19.4561V40.5762H21.3761V38.6562Z" fill="#141C24"/>
<path d="M23.2955 38.6562H21.3755V40.5763H23.2955V38.6562Z" fill="#141C24"/>
<path d="M27.1358 38.6562H25.2158V40.5762H27.1358V38.6562Z" fill="#141C24"/>
<path d="M29.0557 38.6562H27.1357V40.5763H29.0557V38.6562Z" fill="#141C24"/>
<path d="M30.9762 38.6562H29.0562V40.5762H30.9762V38.6562Z" fill="#141C24"/>
<path d="M40.5762 38.6562H38.6562V40.5763H40.5762V38.6562Z" fill="#141C24"/>
<path d="M42.4962 38.6562H40.5762V40.5762H42.4962V38.6562Z" fill="#141C24"/>
<path d="M48.2559 38.6562H46.3359V40.5762H48.2559V38.6562Z" fill="#141C24"/>
<path d="M50.1759 38.6562H48.2559V40.5763H50.1759V38.6562Z" fill="#141C24"/>
<path d="M55.9361 38.6562H54.0161V40.5763H55.9361V38.6562Z" fill="#141C24"/>
<path d="M57.856 38.6562H55.936V40.5762H57.856V38.6562Z" fill="#141C24"/>
<path d="M59.776 38.6562H57.856V40.5762H59.776V38.6562Z" fill="#141C24"/>
<path d="M61.6964 38.6562H59.7764V40.5763H61.6964V38.6562Z" fill="#141C24"/>
<path d="M2.17586 40.5742H0.255859V42.4942H2.17586V40.5742Z" fill="#141C24"/>
<path d="M4.09578 40.5742H2.17578V42.4942H4.09578V40.5742Z" fill="#141C24"/>
<path d="M6.01619 40.5742H4.09619V42.4942H6.01619V40.5742Z" fill="#141C24"/>
<path d="M11.776 40.5742H9.85596V42.4942H11.776V40.5742Z" fill="#141C24"/>
<path d="M15.6158 40.5742H13.6958V42.4942H15.6158V40.5742Z" fill="#141C24"/>
<path d="M19.4561 40.5742H17.5361V42.4942H19.4561V40.5742Z" fill="#141C24"/>
<path d="M21.3761 40.5742H19.4561V42.4942H21.3761V40.5742Z" fill="#141C24"/>
<path d="M23.2955 40.5742H21.3755V42.4942H23.2955V40.5742Z" fill="#141C24"/>
<path d="M25.2159 40.5742H23.2959V42.4942H25.2159V40.5742Z" fill="#141C24"/>
<path d="M27.1358 40.5742H25.2158V42.4942H27.1358V40.5742Z" fill="#141C24"/>
<path d="M30.9762 40.5742H29.0562V42.4942H30.9762V40.5742Z" fill="#141C24"/>
<path d="M32.8961 40.5742H30.9761V42.4942H32.8961V40.5742Z" fill="#141C24"/>
<path d="M34.8165 40.5742H32.8965V42.4942H34.8165V40.5742Z" fill="#141C24"/>
<path d="M36.7359 40.5742H34.8159V42.4942H36.7359V40.5742Z" fill="#141C24"/>
<path d="M40.5762 40.5742H38.6562V42.4942H40.5762V40.5742Z" fill="#141C24"/>
<path d="M42.4962 40.5742H40.5762V42.4942H42.4962V40.5742Z" fill="#141C24"/>
<path d="M48.2559 40.5742H46.3359V42.4942H48.2559V40.5742Z" fill="#141C24"/>
<path d="M50.1759 40.5742H48.2559V42.4942H50.1759V40.5742Z" fill="#141C24"/>
<path d="M52.0958 40.5742H50.1758V42.4942H52.0958V40.5742Z" fill="#141C24"/>
<path d="M55.9361 40.5742H54.0161V42.4942H55.9361V40.5742Z" fill="#141C24"/>
<path d="M57.856 40.5742H55.936V42.4942H57.856V40.5742Z" fill="#141C24"/>
<path d="M59.776 40.5742H57.856V42.4942H59.776V40.5742Z" fill="#141C24"/>
<path d="M61.6964 40.5742H59.7764V42.4942H61.6964V40.5742Z" fill="#141C24"/>
<path d="M2.17586 42.4961H0.255859V44.4161H2.17586V42.4961Z" fill="#141C24"/>
<path d="M7.93611 42.4961H6.01611V44.4161H7.93611V42.4961Z" fill="#141C24"/>
<path d="M9.85604 42.4961H7.93604V44.4161H9.85604V42.4961Z" fill="#141C24"/>
<path d="M13.6964 42.4961H11.7764V44.4161H13.6964V42.4961Z" fill="#141C24"/>
<path d="M17.5357 42.4961H15.6157V44.4161H17.5357V42.4961Z" fill="#141C24"/>
<path d="M21.3761 42.4961H19.4561V44.4161H21.3761V42.4961Z" fill="#141C24"/>
<path d="M25.2159 42.4961H23.2959V44.4161H25.2159V42.4961Z" fill="#141C24"/>
<path d="M27.1358 42.4961H25.2158V44.4161H27.1358V42.4961Z" fill="#141C24"/>
<path d="M29.0557 42.4961H27.1357V44.4161H29.0557V42.4961Z" fill="#141C24"/>
<path d="M30.9762 42.4961H29.0562V44.4161H30.9762V42.4961Z" fill="#141C24"/>
<path d="M38.6558 42.4961H36.7358V44.4161H38.6558V42.4961Z" fill="#141C24"/>
<path d="M48.2559 42.4961H46.3359V44.4161H48.2559V42.4961Z" fill="#141C24"/>
<path d="M50.1759 42.4961H48.2559V44.4161H50.1759V42.4961Z" fill="#141C24"/>
<path d="M54.0162 42.4961H52.0962V44.4161H54.0162V42.4961Z" fill="#141C24"/>
<path d="M55.9361 42.4961H54.0161V44.4161H55.9361V42.4961Z" fill="#141C24"/>
<path d="M2.17586 44.4141H0.255859V46.3341H2.17586V44.4141Z" fill="#141C24"/>
<path d="M15.6158 44.4141H13.6958V46.3341H15.6158V44.4141Z" fill="#141C24"/>
<path d="M17.5357 44.4141H15.6157V46.3341H17.5357V44.4141Z" fill="#141C24"/>
<path d="M25.2159 44.4141H23.2959V46.3341H25.2159V44.4141Z" fill="#141C24"/>
<path d="M29.0557 44.4141H27.1357V46.3341H29.0557V44.4141Z" fill="#141C24"/>
<path d="M36.7359 44.4141H34.8159V46.3341H36.7359V44.4141Z" fill="#141C24"/>
<path d="M40.5762 44.4141H38.6562V46.3341H40.5762V44.4141Z" fill="#141C24"/>
<path d="M48.2559 44.4141H46.3359V46.3341H48.2559V44.4141Z" fill="#141C24"/>
<path d="M50.1759 44.4141H48.2559V46.3341H50.1759V44.4141Z" fill="#141C24"/>
<path d="M52.0958 44.4141H50.1758V46.3341H52.0958V44.4141Z" fill="#141C24"/>
<path d="M63.6158 44.4141H61.6958V46.3341H63.6158V44.4141Z" fill="#141C24"/>
<path d="M2.17586 46.3359H0.255859V48.2559H2.17586V46.3359Z" fill="#141C24"/>
<path d="M7.93611 46.3359H6.01611V48.2559H7.93611V46.3359Z" fill="#141C24"/>
<path d="M11.776 46.3359H9.85596V48.2559H11.776V46.3359Z" fill="#141C24"/>
<path d="M13.6964 46.3359H11.7764V48.2559H13.6964V46.3359Z" fill="#141C24"/>
<path d="M17.5357 46.3359H15.6157V48.2559H17.5357V46.3359Z" fill="#141C24"/>
<path d="M29.0557 46.3359H27.1357V48.2559H29.0557V46.3359Z" fill="#141C24"/>
<path d="M30.9762 46.3359H29.0562V48.2559H30.9762V46.3359Z" fill="#141C24"/>
<path d="M34.8165 46.3359H32.8965V48.2559H34.8165V46.3359Z" fill="#141C24"/>
<path d="M36.7359 46.3359H34.8159V48.2559H36.7359V46.3359Z" fill="#141C24"/>
<path d="M44.4156 46.3359H42.4956V48.2559H44.4156V46.3359Z" fill="#141C24"/>
<path d="M48.2559 46.3359H46.3359V48.2559H48.2559V46.3359Z" fill="#141C24"/>
<path d="M50.1759 46.3359H48.2559V48.2559H50.1759V46.3359Z" fill="#141C24"/>
<path d="M52.0958 46.3359H50.1758V48.2559H52.0958V46.3359Z" fill="#141C24"/>
<path d="M54.0162 46.3359H52.0962V48.2559H54.0162V46.3359Z" fill="#141C24"/>
<path d="M55.9361 46.3359H54.0161V48.2559H55.9361V46.3359Z" fill="#141C24"/>
<path d="M57.856 46.3359H55.936V48.2559H57.856V46.3359Z" fill="#141C24"/>
<path d="M61.6964 46.3359H59.7764V48.2559H61.6964V46.3359Z" fill="#141C24"/>
<path d="M17.5357 48.2578H15.6157V50.1778H17.5357V48.2578Z" fill="#141C24"/>
<path d="M23.2955 48.2578H21.3755V50.1778H23.2955V48.2578Z" fill="#141C24"/>
<path d="M25.2159 48.2578H23.2959V50.1778H25.2159V48.2578Z" fill="#141C24"/>
<path d="M27.1358 48.2578H25.2158V50.1778H27.1358V48.2578Z" fill="#141C24"/>
<path d="M29.0557 48.2578H27.1357V50.1778H29.0557V48.2578Z" fill="#141C24"/>
<path d="M34.8165 48.2578H32.8965V50.1778H34.8165V48.2578Z" fill="#141C24"/>
<path d="M36.7359 48.2578H34.8159V50.1778H36.7359V48.2578Z" fill="#141C24"/>
<path d="M38.6558 48.2578H36.7358V50.1778H38.6558V48.2578Z" fill="#141C24"/>
<path d="M40.5762 48.2578H38.6562V50.1778H40.5762V48.2578Z" fill="#141C24"/>
<path d="M44.4156 48.2578H42.4956V50.1778H44.4156V48.2578Z" fill="#141C24"/>
<path d="M46.336 48.2578H44.416V50.1778H46.336V48.2578Z" fill="#141C24"/>
<path d="M48.2559 48.2578H46.3359V50.1778H48.2559V48.2578Z" fill="#141C24"/>
<path d="M55.9361 48.2578H54.0161V50.1778H55.9361V48.2578Z" fill="#141C24"/>
<path d="M59.776 48.2578H57.856V50.1778H59.776V48.2578Z" fill="#141C24"/>
<path d="M61.6964 48.2578H59.7764V50.1778H61.6964V48.2578Z" fill="#141C24"/>
<path d="M63.6158 48.2578H61.6958V50.1778H63.6158V48.2578Z" fill="#141C24"/>
<path d="M2.17586 50.1758H0.255859V52.0958H2.17586V50.1758Z" fill="#141C24"/>
<path d="M4.09578 50.1758H2.17578V52.0958H4.09578V50.1758Z" fill="#141C24"/>
<path d="M6.01619 50.1758H4.09619V52.0958H6.01619V50.1758Z" fill="#141C24"/>
<path d="M7.93611 50.1758H6.01611V52.0958H7.93611V50.1758Z" fill="#141C24"/>
<path d="M9.85604 50.1758H7.93604V52.0958H9.85604V50.1758Z" fill="#141C24"/>
<path d="M11.776 50.1758H9.85596V52.0958H11.776V50.1758Z" fill="#141C24"/>
<path d="M13.6964 50.1758H11.7764V52.0958H13.6964V50.1758Z" fill="#141C24"/>
<path d="M19.4561 50.1758H17.5361V52.0958H19.4561V50.1758Z" fill="#141C24"/>
<path d="M21.3761 50.1758H19.4561V52.0958H21.3761V50.1758Z" fill="#141C24"/>
<path d="M23.2955 50.1758H21.3755V52.0958H23.2955V50.1758Z" fill="#141C24"/>
<path d="M30.9762 50.1758H29.0562V52.0958H30.9762V50.1758Z" fill="#141C24"/>
<path d="M44.4156 50.1758H42.4956V52.0958H44.4156V50.1758Z" fill="#141C24"/>
<path d="M48.2559 50.1758H46.3359V52.0958H48.2559V50.1758Z" fill="#141C24"/>
<path d="M52.0958 50.1758H50.1758V52.0958H52.0958V50.1758Z" fill="#141C24"/>
<path d="M55.9361 50.1758H54.0161V52.0958H55.9361V50.1758Z" fill="#141C24"/>
<path d="M61.6964 50.1758H59.7764V52.0958H61.6964V50.1758Z" fill="#141C24"/>
<path d="M63.6158 50.1758H61.6958V52.0958H63.6158V50.1758Z" fill="#141C24"/>
<path d="M2.17586 52.0977H0.255859V54.0177H2.17586V52.0977Z" fill="#141C24"/>
<path d="M13.6964 52.0977H11.7764V54.0177H13.6964V52.0977Z" fill="#141C24"/>
<path d="M21.3761 52.0977H19.4561V54.0177H21.3761V52.0977Z" fill="#141C24"/>
<path d="M29.0557 52.0977H27.1357V54.0177H29.0557V52.0977Z" fill="#141C24"/>
<path d="M32.8961 52.0977H30.9761V54.0177H32.8961V52.0977Z" fill="#141C24"/>
<path d="M36.7359 52.0977H34.8159V54.0177H36.7359V52.0977Z" fill="#141C24"/>
<path d="M46.336 52.0977H44.416V54.0177H46.336V52.0977Z" fill="#141C24"/>
<path d="M48.2559 52.0977H46.3359V54.0177H48.2559V52.0977Z" fill="#141C24"/>
<path d="M55.9361 52.0977H54.0161V54.0177H55.9361V52.0977Z" fill="#141C24"/>
<path d="M57.856 52.0977H55.936V54.0177H57.856V52.0977Z" fill="#141C24"/>
<path d="M63.6158 52.0977H61.6958V54.0177H63.6158V52.0977Z" fill="#141C24"/>
<path d="M2.17586 54.0156H0.255859V55.9356H2.17586V54.0156Z" fill="#141C24"/>
<path d="M6.01619 54.0156H4.09619V55.9356H6.01619V54.0156Z" fill="#141C24"/>
<path d="M7.93611 54.0156H6.01611V55.9356H7.93611V54.0156Z" fill="#141C24"/>
<path d="M9.85604 54.0156H7.93604V55.9356H9.85604V54.0156Z" fill="#141C24"/>
<path d="M13.6964 54.0156H11.7764V55.9356H13.6964V54.0156Z" fill="#141C24"/>
<path d="M17.5357 54.0156H15.6157V55.9356H17.5357V54.0156Z" fill="#141C24"/>
<path d="M19.4561 54.0156H17.5361V55.9356H19.4561V54.0156Z" fill="#141C24"/>
<path d="M21.3761 54.0156H19.4561V55.9356H21.3761V54.0156Z" fill="#141C24"/>
<path d="M27.1358 54.0156H25.2158V55.9356H27.1358V54.0156Z" fill="#141C24"/>
<path d="M30.9762 54.0156H29.0562V55.9356H30.9762V54.0156Z" fill="#141C24"/>
<path d="M32.8961 54.0156H30.9761V55.9356H32.8961V54.0156Z" fill="#141C24"/>
<path d="M40.5762 54.0156H38.6562V55.9356H40.5762V54.0156Z" fill="#141C24"/>
<path d="M42.4962 54.0156H40.5762V55.9356H42.4962V54.0156Z" fill="#141C24"/>
<path d="M44.4156 54.0156H42.4956V55.9356H44.4156V54.0156Z" fill="#141C24"/>
<path d="M46.336 54.0156H44.416V55.9356H46.336V54.0156Z" fill="#141C24"/>
<path d="M48.2559 54.0156H46.3359V55.9356H48.2559V54.0156Z" fill="#141C24"/>
<path d="M50.1759 54.0156H48.2559V55.9356H50.1759V54.0156Z" fill="#141C24"/>
<path d="M52.0958 54.0156H50.1758V55.9356H52.0958V54.0156Z" fill="#141C24"/>
<path d="M54.0162 54.0156H52.0962V55.9356H54.0162V54.0156Z" fill="#141C24"/>
<path d="M55.9361 54.0156H54.0161V55.9356H55.9361V54.0156Z" fill="#141C24"/>
<path d="M2.17586 55.9375H0.255859V57.8575H2.17586V55.9375Z" fill="#141C24"/>
<path d="M6.01619 55.9375H4.09619V57.8575H6.01619V55.9375Z" fill="#141C24"/>
<path d="M7.93611 55.9375H6.01611V57.8575H7.93611V55.9375Z" fill="#141C24"/>
<path d="M9.85604 55.9375H7.93604V57.8575H9.85604V55.9375Z" fill="#141C24"/>
<path d="M13.6964 55.9375H11.7764V57.8575H13.6964V55.9375Z" fill="#141C24"/>
<path d="M17.5357 55.9375H15.6157V57.8575H17.5357V55.9375Z" fill="#141C24"/>
<path d="M19.4561 55.9375H17.5361V57.8575H19.4561V55.9375Z" fill="#141C24"/>
<path d="M27.1358 55.9375H25.2158V57.8575H27.1358V55.9375Z" fill="#141C24"/>
<path d="M29.0557 55.9375H27.1357V57.8575H29.0557V55.9375Z" fill="#141C24"/>
<path d="M40.5762 55.9375H38.6562V57.8575H40.5762V55.9375Z" fill="#141C24"/>
<path d="M42.4962 55.9375H40.5762V57.8575H42.4962V55.9375Z" fill="#141C24"/>
<path d="M50.1759 55.9375H48.2559V57.8575H50.1759V55.9375Z" fill="#141C24"/>
<path d="M54.0162 55.9375H52.0962V57.8575H54.0162V55.9375Z" fill="#141C24"/>
<path d="M59.776 55.9375H57.856V57.8575H59.776V55.9375Z" fill="#141C24"/>
<path d="M61.6964 55.9375H59.7764V57.8575H61.6964V55.9375Z" fill="#141C24"/>
<path d="M2.17586 57.8555H0.255859V59.7755H2.17586V57.8555Z" fill="#141C24"/>
<path d="M6.01619 57.8555H4.09619V59.7755H6.01619V57.8555Z" fill="#141C24"/>
<path d="M7.93611 57.8555H6.01611V59.7755H7.93611V57.8555Z" fill="#141C24"/>
<path d="M9.85604 57.8555H7.93604V59.7755H9.85604V57.8555Z" fill="#141C24"/>
<path d="M13.6964 57.8555H11.7764V59.7755H13.6964V57.8555Z" fill="#141C24"/>
<path d="M17.5357 57.8555H15.6157V59.7755H17.5357V57.8555Z" fill="#141C24"/>
<path d="M21.3761 57.8555H19.4561V59.7755H21.3761V57.8555Z" fill="#141C24"/>
<path d="M23.2955 57.8555H21.3755V59.7755H23.2955V57.8555Z" fill="#141C24"/>
<path d="M27.1358 57.8555H25.2158V59.7755H27.1358V57.8555Z" fill="#141C24"/>
<path d="M29.0557 57.8555H27.1357V59.7755H29.0557V57.8555Z" fill="#141C24"/>
<path d="M30.9762 57.8555H29.0562V59.7755H30.9762V57.8555Z" fill="#141C24"/>
<path d="M32.8961 57.8555H30.9761V59.7755H32.8961V57.8555Z" fill="#141C24"/>
<path d="M34.8165 57.8555H32.8965V59.7755H34.8165V57.8555Z" fill="#141C24"/>
<path d="M40.5762 57.8555H38.6562V59.7755H40.5762V57.8555Z" fill="#141C24"/>
<path d="M42.4962 57.8555H40.5762V59.7755H42.4962V57.8555Z" fill="#141C24"/>
<path d="M46.336 57.8555H44.416V59.7755H46.336V57.8555Z" fill="#141C24"/>
<path d="M48.2559 57.8555H46.3359V59.7755H48.2559V57.8555Z" fill="#141C24"/>
<path d="M54.0162 57.8555H52.0962V59.7755H54.0162V57.8555Z" fill="#141C24"/>
<path d="M55.9361 57.8555H54.0161V59.7755H55.9361V57.8555Z" fill="#141C24"/>
<path d="M57.856 57.8555H55.936V59.7755H57.856V57.8555Z" fill="#141C24"/>
<path d="M2.17586 59.7773H0.255859V61.6973H2.17586V59.7773Z" fill="#141C24"/>
<path d="M13.6964 59.7773H11.7764V61.6973H13.6964V59.7773Z" fill="#141C24"/>
<path d="M19.4561 59.7773H17.5361V61.6973H19.4561V59.7773Z" fill="#141C24"/>
<path d="M21.3761 59.7773H19.4561V61.6973H21.3761V59.7773Z" fill="#141C24"/>
<path d="M23.2955 59.7773H21.3755V61.6973H23.2955V59.7773Z" fill="#141C24"/>
<path d="M25.2159 59.7773H23.2959V61.6973H25.2159V59.7773Z" fill="#141C24"/>
<path d="M30.9762 59.7773H29.0562V61.6973H30.9762V59.7773Z" fill="#141C24"/>
<path d="M32.8961 59.7773H30.9761V61.6973H32.8961V59.7773Z" fill="#141C24"/>
<path d="M34.8165 59.7773H32.8965V61.6973H34.8165V59.7773Z" fill="#141C24"/>
<path d="M36.7359 59.7773H34.8159V61.6973H36.7359V59.7773Z" fill="#141C24"/>
<path d="M42.4962 59.7773H40.5762V61.6973H42.4962V59.7773Z" fill="#141C24"/>
<path d="M44.4156 59.7773H42.4956V61.6973H44.4156V59.7773Z" fill="#141C24"/>
<path d="M46.336 59.7773H44.416V61.6973H46.336V59.7773Z" fill="#141C24"/>
<path d="M50.1759 59.7773H48.2559V61.6973H50.1759V59.7773Z" fill="#141C24"/>
<path d="M54.0162 59.7773H52.0962V61.6973H54.0162V59.7773Z" fill="#141C24"/>
<path d="M55.9361 59.7773H54.0161V61.6973H55.9361V59.7773Z" fill="#141C24"/>
<path d="M59.776 59.7773H57.856V61.6973H59.776V59.7773Z" fill="#141C24"/>
<path d="M61.6964 59.7773H59.7764V61.6973H61.6964V59.7773Z" fill="#141C24"/>
<path d="M63.6158 59.7773H61.6958V61.6973H63.6158V59.7773Z" fill="#141C24"/>
<path d="M2.17586 61.6953H0.255859V63.6153H2.17586V61.6953Z" fill="#141C24"/>
<path d="M4.09578 61.6953H2.17578V63.6153H4.09578V61.6953Z" fill="#141C24"/>
<path d="M6.01619 61.6953H4.09619V63.6153H6.01619V61.6953Z" fill="#141C24"/>
<path d="M7.93611 61.6953H6.01611V63.6153H7.93611V61.6953Z" fill="#141C24"/>
<path d="M9.85604 61.6953H7.93604V63.6153H9.85604V61.6953Z" fill="#141C24"/>
<path d="M11.776 61.6953H9.85596V63.6153H11.776V61.6953Z" fill="#141C24"/>
<path d="M13.6964 61.6953H11.7764V63.6153H13.6964V61.6953Z" fill="#141C24"/>
<path d="M19.4561 61.6953H17.5361V63.6153H19.4561V61.6953Z" fill="#141C24"/>
<path d="M23.2955 61.6953H21.3755V63.6153H23.2955V61.6953Z" fill="#141C24"/>
<path d="M30.9762 61.6953H29.0562V63.6153H30.9762V61.6953Z" fill="#141C24"/>
<path d="M32.8961 61.6953H30.9761V63.6153H32.8961V61.6953Z" fill="#141C24"/>
<path d="M34.8165 61.6953H32.8965V63.6153H34.8165V61.6953Z" fill="#141C24"/>
<path d="M40.5762 61.6953H38.6562V63.6153H40.5762V61.6953Z" fill="#141C24"/>
<path d="M46.336 61.6953H44.416V63.6153H46.336V61.6953Z" fill="#141C24"/>
<path d="M52.0958 61.6953H50.1758V63.6153H52.0958V61.6953Z" fill="#141C24"/>
<path d="M57.856 61.6953H55.936V63.6153H57.856V61.6953Z" fill="#141C24"/>
<path d="M59.776 61.6953H57.856V63.6153H59.776V61.6953Z" fill="#141C24"/>
<path d="M61.6964 61.6953H59.7764V63.6153H61.6964V61.6953Z" fill="#141C24"/>
</g>
</g>
<defs>
<clipPath id="clip0_40002527_17957">
<rect width="64" height="64" fill="white"/>
</clipPath>
<clipPath id="clip1_40002527_17957">
<rect width="64" height="64" fill="white"/>
</clipPath>
</defs>
</svg>
